<svg viewBox="0 0 334.0 552" xmlns="http://www.w3.org/2000/svg">
  <rect x="0.0" y="0" width="1.0" height="4" fill="blue"><title>module.vpc.aws_vpc_dhcp_options.main (0:00:01)</title></rect>
  <rect x="0.0" y="4" width="0.0" height="4" fill="blue"><title>module.bootstrap.aws_iam_role_policy.bootstrap (0:00:00)</title></rect>
  <rect x="0.0" y="8" width="1.0" height="4" fill="blue"><title>module.masters.aws_iam_instance_profile.master (0:00:01)</title></rect>
  <rect x="0.0" y="12" width="2.0" height="4" fill="blue"><title>module.bootstrap.aws_s3_bucket.ignition (0:00:02)</title></rect>
  <rect x="0.0" y="16" width="1.0" height="4" fill="blue"><title>module.iam.aws_iam_instance_profile.worker (0:00:01)</title></rect>
  <rect x="0.0" y="20" width="1.0" height="4" fill="blue"><title>module.bootstrap.aws_iam_instance_profile.bootstrap (0:00:01)</title></rect>
  <rect x="0.0" y="24" width="0.0" height="4" fill="blue"><title>module.masters.aws_iam_role_policy.master_policy (0:00:00)</title></rect>
  <rect x="0.0" y="28" width="0.0" height="4" fill="blue"><title>module.masters.aws_iam_role.master_role (0:00:00)</title></rect>
  <rect x="0.0" y="32" width="2.0" height="4" fill="blue"><title>module.vpc.aws_vpc.new_vpc (0:00:02)</title></rect>
  <rect x="0.0" y="36" width="310.0" height="4" fill="blue"><title>aws_ami_copy.main (0:05:10)</title></rect>
  <rect x="0.0" y="40" width="0.0" height="4" fill="blue"><title>module.bootstrap.aws_iam_role.bootstrap (0:00:00)</title></rect>
  <rect x="0.0" y="44" width="0.0" height="4" fill="blue"><title>module.iam.aws_iam_role.worker_role (0:00:00)</title></rect>
  <rect x="0.0" y="48" width="0.0" height="4" fill="blue"><title>module.iam.aws_iam_role_policy.worker_policy (0:00:00)</title></rect>
  <rect x="2.0" y="52" width="2.0" height="4" fill="blue"><title>module.vpc.aws_lb_target_group.services (0:00:02)</title></rect>
  <rect x="2.0" y="56" width="0.0" height="4" fill="blue"><title>module.vpc.aws_vpc_dhcp_options_association.main (0:00:00)</title></rect>
  <rect x="2.0" y="60" width="0.0" height="4" fill="blue"><title>module.bootstrap.aws_s3_bucket_object.ignition (0:00:00)</title></rect>
  <rect x="2.0" y="64" width="2.0" height="4" fill="blue"><title>module.vpc.aws_lb_target_group.api_external (0:00:02)</title></rect>
  <rect x="2.0" y="68" width="2.0" height="4" fill="blue"><title>module.vpc.aws_lb_target_group.api_internal (0:00:02)</title></rect>
  <rect x="3.0" y="72" width="24.0" height="4" fill="blue"><title>module.vpc.aws_route_table.default (0:00:24)</title></rect>
  <rect x="3.0" y="76" width="238.0" height="4" fill="blue"><title>module.vpc.aws_security_group.master (0:03:58)</title></rect>
  <rect x="3.0" y="80" width="3.0" height="4" fill="blue"><title>module.vpc.aws_route_table.private_routes[5] (0:00:03)</title></rect>
  <rect x="3.0" y="84" width="10.0" height="4" fill="blue"><title>module.vpc.aws_security_group.worker (0:00:10)</title></rect>
  <rect x="3.0" y="88" width="31.0" height="4" fill="blue"><title>module.vpc.aws_internet_gateway.igw (0:00:31)</title></rect>
  <rect x="3.0" y="92" width="24.0" height="4" fill="blue"><title>module.vpc.aws_route_table.private_routes[2] (0:00:24)</title></rect>
  <rect x="4.0" y="96" width="12.0" height="4" fill="blue"><title>module.vpc.aws_route_table.private_routes[0] (0:00:12)</title></rect>
  <rect x="4.0" y="100" width="97.0" height="4" fill="blue"><title>module.vpc.aws_route_table.private_routes[4] (0:01:37)</title></rect>
  <rect x="4.0" y="104" width="1.0" height="4" fill="blue"><title>module.vpc.aws_route_table.private_routes[1] (0:00:01)</title></rect>
  <rect x="5.0" y="108" width="19.0" height="4" fill="blue"><title>module.vpc.aws_subnet.public_subnet[0] (0:00:19)</title></rect>
  <rect x="6.0" y="112" width="56.0" height="4" fill="blue"><title>module.vpc.aws_subnet.public_subnet[5] (0:00:56)</title></rect>
  <rect x="13.0" y="116" width="59.0" height="4" fill="blue"><title>module.vpc.aws_subnet.private_subnet[0] (0:00:59)</title></rect>
  <rect x="16.0" y="120" width="12.0" height="4" fill="blue"><title>module.vpc.aws_route_table.private_routes[3] (0:00:12)</title></rect>
  <rect x="24.0" y="124" width="8.0" height="4" fill="blue"><title>module.vpc.aws_subnet.public_subnet[3] (0:00:08)</title></rect>
  <rect x="27.0" y="128" width="2.0" height="4" fill="blue"><title>module.vpc.aws_subnet.private_subnet[1] (0:00:02)</title></rect>
  <rect x="27.0" y="132" width="1.0" height="4" fill="blue"><title>module.vpc.aws_subnet.public_subnet[4] (0:00:01)</title></rect>
  <rect x="28.0" y="136" width="1.0" height="4" fill="blue"><title>module.vpc.aws_subnet.public_subnet[2] (0:00:01)</title></rect>
  <rect x="28.0" y="140" width="3.0" height="4" fill="blue"><title>module.vpc.aws_subnet.private_subnet[4] (0:00:03)</title></rect>
  <rect x="29.0" y="144" width="85.0" height="4" fill="blue"><title>module.vpc.aws_subnet.private_subnet[3] (0:01:25)</title></rect>
  <rect x="29.0" y="148" width="1.0" height="4" fill="blue"><title>module.vpc.aws_subnet.public_subnet[1] (0:00:01)</title></rect>
  <rect x="30.0" y="152" width="3.0" height="4" fill="blue"><title>module.vpc.aws_subnet.private_subnet[2] (0:00:03)</title></rect>
  <rect x="31.0" y="156" width="3.0" height="4" fill="blue"><title>module.vpc.aws_subnet.private_subnet[5] (0:00:03)</title></rect>
  <rect x="32.0" y="160" width="1.0" height="4" fill="blue"><title>module.vpc.aws_security_group_rule.worker_ingress_vxlan (0:00:01)</title></rect>
  <rect x="32.0" y="164" width="0.0" height="4" fill="blue"><title>module.vpc.aws_security_group_rule.worker_ingress_kubelet_insecure (0:00:00)</title></rect>
  <rect x="33.0" y="168" width="1.0" height="4" fill="blue"><title>module.vpc.aws_security_group_rule.worker_ingress_ssh (0:00:01)</title></rect>
  <rect x="33.0" y="172" width="4.0" height="4" fill="blue"><title>module.vpc.aws_security_group_rule.worker_egress (0:00:04)</title></rect>
  <rect x="34.0" y="176" width="5.0" height="4" fill="blue"><title>module.vpc.aws_security_group_rule.worker_ingress_services (0:00:05)</title></rect>
  <rect x="34.0" y="180" width="5.0" height="4" fill="blue"><title>module.vpc.aws_security_group_rule.worker_ingress_internal (0:00:05)</title></rect>
  <rect x="34.0" y="184" width="4.0" height="4" fill="blue"><title>module.vpc.aws_security_group_rule.worker_ingress_icmp (0:00:04)</title></rect>
  <rect x="37.0" y="188" width="3.0" height="4" fill="blue"><title>module.vpc.aws_security_group_rule.worker_ingress_internal_udp (0:00:03)</title></rect>
  <rect x="38.0" y="192" width="0.0" height="4" fill="blue"><title>module.vpc.aws_main_route_table_association.main_vpc_routes (0:00:00)</title></rect>
  <rect x="38.0" y="196" width="5.0" height="4" fill="blue"><title>module.bootstrap.aws_security_group.bootstrap (0:00:05)</title></rect>
  <rect x="39.0" y="200" width="47.0" height="4" fill="blue"><title>module.dns.aws_route53_zone.int (0:00:47)</title></rect>
  <rect x="40.0" y="204" width="3.0" height="4" fill="blue"><title>module.vpc.aws_eip.nat_eip[1] (0:00:03)</title></rect>
  <rect x="40.0" y="208" width="0.0" height="4" fill="blue"><title>module.vpc.aws_route.igw_route (0:00:00)</title></rect>
  <rect x="40.0" y="212" width="2.0" height="4" fill="blue"><title>module.vpc.aws_eip.nat_eip[4] (0:00:02)</title></rect>
  <rect x="42.0" y="216" width="7.0" height="4" fill="blue"><title>module.vpc.aws_eip.nat_eip[5] (0:00:07)</title></rect>
  <rect x="43.0" y="220" width="11.0" height="4" fill="blue"><title>module.vpc.aws_eip.nat_eip[0] (0:00:11)</title></rect>
  <rect x="43.0" y="224" width="6.0" height="4" fill="blue"><title>module.vpc.aws_eip.nat_eip[2] (0:00:06)</title></rect>
  <rect x="49.0" y="228" width="1.0" height="4" fill="blue"><title>module.bootstrap.aws_security_group_rule.ssh (0:00:01)</title></rect>
  <rect x="49.0" y="232" width="37.0" height="4" fill="blue"><title>module.vpc.aws_eip.nat_eip[3] (0:00:37)</title></rect>
  <rect x="50.0" y="236" width="1.0" height="4" fill="blue"><title>module.bootstrap.aws_security_group_rule.bootstrap_journald_gateway (0:00:01)</title></rect>
  <rect x="62.0" y="240" width="1.0" height="4" fill="blue"><title>module.vpc.aws_route_table_association.route_net[3] (0:00:01)</title></rect>
  <rect x="62.0" y="244" width="1.0" height="4" fill="blue"><title>module.vpc.aws_route_table_association.route_net[1] (0:00:01)</title></rect>
  <rect x="62.0" y="248" width="13.0" height="4" fill="blue"><title>module.vpc.aws_route_table_association.route_net[0] (0:00:13)</title></rect>
  <rect x="62.0" y="252" width="0.0" height="4" fill="blue"><title>module.vpc.aws_route_table_association.route_net[5] (0:00:00)</title></rect>
  <rect x="62.0" y="256" width="0.0" height="4" fill="blue"><title>module.vpc.aws_route_table_association.route_net[2] (0:00:00)</title></rect>
  <rect x="63.0" y="260" width="163.0" height="4" fill="blue"><title>module.vpc.aws_lb.api_external (0:02:43)</title></rect>
  <rect x="63.0" y="264" width="0.0" height="4" fill="blue"><title>module.vpc.aws_route_table_association.route_net[4] (0:00:00)</title></rect>
  <rect x="86.0" y="268" width="106.0" height="4" fill="blue"><title>module.vpc.aws_nat_gateway.nat_gw[2] (0:01:46)</title></rect>
  <rect x="86.0" y="272" width="146.0" height="4" fill="blue"><title>module.vpc.aws_nat_gateway.nat_gw[5] (0:02:26)</title></rect>
  <rect x="86.0" y="276" width="112.0" height="4" fill="blue"><title>module.vpc.aws_nat_gateway.nat_gw[1] (0:01:52)</title></rect>
  <rect x="86.0" y="280" width="116.0" height="4" fill="blue"><title>module.vpc.aws_nat_gateway.nat_gw[4] (0:01:56)</title></rect>
  <rect x="86.0" y="284" width="96.0" height="4" fill="blue"><title>module.vpc.aws_nat_gateway.nat_gw[3] (0:01:36)</title></rect>
  <rect x="101.0" y="288" width="129.0" height="4" fill="blue"><title>module.vpc.aws_nat_gateway.nat_gw[0] (0:02:09)</title></rect>
  <rect x="114.0" y="292" width="6.0" height="4" fill="blue"><title>module.vpc.aws_vpc_endpoint.s3 (0:00:06)</title></rect>
  <rect x="120.0" y="296" width="1.0" height="4" fill="blue"><title>module.vpc.aws_route_table_association.private_routing[1] (0:00:01)</title></rect>
  <rect x="120.0" y="300" width="0.0" height="4" fill="blue"><title>module.vpc.aws_route_table_association.private_routing[4] (0:00:00)</title></rect>
  <rect x="120.0" y="304" width="0.0" height="4" fill="blue"><title>module.vpc.aws_route_table_association.private_routing[3] (0:00:00)</title></rect>
  <rect x="121.0" y="308" width="3.0" height="4" fill="blue"><title>module.vpc.aws_route_table_association.private_routing[0] (0:00:03)</title></rect>
  <rect x="121.0" y="312" width="0.0" height="4" fill="blue"><title>module.vpc.aws_route_table_association.private_routing[5] (0:00:00)</title></rect>
  <rect x="124.0" y="316" width="0.0" height="4" fill="blue"><title>module.vpc.aws_route_table_association.private_routing[2] (0:00:00)</title></rect>
  <rect x="124.0" y="320" width="172.0" height="4" fill="blue"><title>module.vpc.aws_lb.api_internal (0:02:52)</title></rect>
  <rect x="226.0" y="324" width="0.0" height="4" fill="blue"><title>module.vpc.aws_lb_listener.api_external_api (0:00:00)</title></rect>
  <rect x="226.0" y="328" width="35.0" height="4" fill="blue"><title>module.dns.aws_route53_record.api_external (0:00:35)</title></rect>
  <rect x="232.0" y="332" width="1.0" height="4" fill="blue"><title>module.vpc.aws_route.to_nat_gw[3] (0:00:01)</title></rect>
  <rect x="232.0" y="336" width="1.0" height="4" fill="blue"><title>module.vpc.aws_route.to_nat_gw[4] (0:00:01)</title></rect>
  <rect x="232.0" y="340" width="2.0" height="4" fill="blue"><title>module.vpc.aws_route.to_nat_gw[2] (0:00:02)</title></rect>
  <rect x="232.0" y="344" width="1.0" height="4" fill="blue"><title>module.vpc.aws_route.to_nat_gw[5] (0:00:01)</title></rect>
  <rect x="232.0" y="348" width="1.0" height="4" fill="blue"><title>module.vpc.aws_route.to_nat_gw[0] (0:00:01)</title></rect>
  <rect x="232.0" y="352" width="2.0" height="4" fill="blue"><title>module.vpc.aws_route.to_nat_gw[1] (0:00:02)</title></rect>
  <rect x="241.0" y="356" width="2.0" height="4" fill="blue"><title>module.vpc.aws_security_group_rule.master_ingress_services (0:00:02)</title></rect>
  <rect x="241.0" y="360" width="4.0" height="4" fill="blue"><title>module.vpc.aws_security_group_rule.master_ingress_kube_scheduler (0:00:04)</title></rect>
  <rect x="241.0" y="364" width="3.0" height="4" fill="blue"><title>module.vpc.aws_security_group_rule.master_ingress_kube_controller_manager_from_worker (0:00:03)</title></rect>
  <rect x="241.0" y="368" width="1.0" height="4" fill="blue"><title>module.vpc.aws_security_group_rule.master_ingress_kubelet_secure_from_worker (0:00:01)</title></rect>
  <rect x="241.0" y="372" width="5.0" height="4" fill="blue"><title>module.vpc.aws_security_group_rule.master_ingress_internal_from_worker (0:00:05)</title></rect>
  <rect x="241.0" y="376" width="4.0" height="4" fill="blue"><title>module.vpc.aws_security_group_rule.master_mcs (0:00:04)</title></rect>
  <rect x="241.0" y="380" width="1.0" height="4" fill="blue"><title>module.vpc.aws_security_group_rule.worker_ingress_vxlan_from_master (0:00:01)</title></rect>
  <rect x="242.0" y="384" width="5.0" height="4" fill="blue"><title>module.vpc.aws_security_group_rule.master_ingress_internal (0:00:05)</title></rect>
  <rect x="242.0" y="388" width="5.0" height="4" fill="blue"><title>module.vpc.aws_security_group_rule.master_ingress_ssh (0:00:05)</title></rect>
  <rect x="243.0" y="392" width="5.0" height="4" fill="blue"><title>module.vpc.aws_security_group_rule.master_ingress_kubelet_secure (0:00:05)</title></rect>
  <rect x="244.0" y="396" width="4.0" height="4" fill="blue"><title>module.vpc.aws_security_group_rule.master_ingress_icmp (0:00:04)</title></rect>
  <rect x="245.0" y="400" width="4.0" height="4" fill="blue"><title>module.vpc.aws_security_group_rule.master_ingress_kube_scheduler_from_worker (0:00:04)</title></rect>
  <rect x="245.0" y="404" width="1.0" height="4" fill="blue"><title>module.vpc.aws_security_group_rule.worker_ingress_internal_from_master (0:00:01)</title></rect>
  <rect x="246.0" y="408" width="1.0" height="4" fill="blue"><title>module.vpc.aws_security_group_rule.worker_ingress_internal_from_master_udp (0:00:01)</title></rect>
  <rect x="246.0" y="412" width="1.0" height="4" fill="blue"><title>module.vpc.aws_security_group_rule.worker_ingress_kubelet_insecure_from_master (0:00:01)</title></rect>
  <rect x="247.0" y="416" width="3.0" height="4" fill="blue"><title>module.vpc.aws_security_group_rule.master_ingress_etcd (0:00:03)</title></rect>
  <rect x="247.0" y="420" width="2.0" height="4" fill="blue"><title>module.vpc.aws_security_group_rule.master_ingress_https (0:00:02)</title></rect>
  <rect x="247.0" y="424" width="3.0" height="4" fill="blue"><title>module.vpc.aws_security_group_rule.master_ingress_internal_from_worker_udp (0:00:03)</title></rect>
  <rect x="247.0" y="428" width="4.0" height="4" fill="blue"><title>module.vpc.aws_security_group_rule.master_egress (0:00:04)</title></rect>
  <rect x="248.0" y="432" width="4.0" height="4" fill="blue"><title>module.vpc.aws_security_group_rule.master_ingress_internal_udp (0:00:04)</title></rect>
  <rect x="248.0" y="436" width="4.0" height="4" fill="blue"><title>module.vpc.aws_security_group_rule.master_ingress_vxlan (0:00:04)</title></rect>
  <rect x="249.0" y="440" width="4.0" height="4" fill="blue"><title>module.vpc.aws_security_group_rule.master_ingress_kube_controller_manager (0:00:04)</title></rect>
  <rect x="249.0" y="444" width="5.0" height="4" fill="blue"><title>module.vpc.aws_security_group_rule.master_ingress_vxlan_from_worker (0:00:05)</title></rect>
  <rect x="250.0" y="448" width="4.0" height="4" fill="blue"><title>module.masters.aws_network_interface.master[0] (0:00:04)</title></rect>
  <rect x="250.0" y="452" width="3.0" height="4" fill="blue"><title>module.masters.aws_network_interface.master[1] (0:00:03)</title></rect>
  <rect x="251.0" y="456" width="1.0" height="4" fill="blue"><title>module.masters.aws_network_interface.master[2] (0:00:01)</title></rect>
  <rect x="254.0" y="460" width="46.0" height="4" fill="blue"><title>module.dns.aws_route53_record.etcd_a_nodes[0] (0:00:46)</title></rect>
  <rect x="254.0" y="464" width="47.0" height="4" fill="blue"><title>module.dns.aws_route53_record.etcd_a_nodes[2] (0:00:47)</title></rect>
  <rect x="254.0" y="468" width="46.0" height="4" fill="blue"><title>module.dns.aws_route53_record.etcd_a_nodes[1] (0:00:46)</title></rect>
  <rect x="296.0" y="472" width="1.0" height="4" fill="blue"><title>module.vpc.aws_lb_listener.api_internal_services (0:00:01)</title></rect>
  <rect x="296.0" y="476" width="1.0" height="4" fill="blue"><title>module.vpc.aws_lb_listener.api_internal_api (0:00:01)</title></rect>
  <rect x="296.0" y="480" width="46.0" height="4" fill="blue"><title>module.dns.aws_route53_record.api_internal (0:00:46)</title></rect>
  <rect x="301.0" y="484" width="46.0" height="4" fill="blue"><title>module.dns.aws_route53_record.etcd_cluster (0:00:46)</title></rect>
  <rect x="310.0" y="488" width="22.0" height="4" fill="blue"><title>module.masters.aws_instance.master[1] (0:00:22)</title></rect>
  <rect x="310.0" y="492" width="22.0" height="4" fill="blue"><title>module.bootstrap.aws_instance.bootstrap (0:00:22)</title></rect>
  <rect x="310.0" y="496" width="23.0" height="4" fill="blue"><title>module.masters.aws_instance.master[2] (0:00:23)</title></rect>
  <rect x="310.0" y="500" width="22.0" height="4" fill="blue"><title>module.masters.aws_instance.master[0] (0:00:22)</title></rect>
  <rect x="332.0" y="504" width="1.0" height="4" fill="blue"><title>module.bootstrap.aws_lb_target_group_attachment.bootstrap[1] (0:00:01)</title></rect>
  <rect x="332.0" y="508" width="1.0" height="4" fill="blue"><title>module.bootstrap.aws_lb_target_group_attachment.bootstrap[2] (0:00:01)</title></rect>
  <rect x="332.0" y="512" width="1.0" height="4" fill="blue"><title>module.bootstrap.aws_lb_target_group_attachment.bootstrap[0] (0:00:01)</title></rect>
  <rect x="333.0" y="516" width="0.0" height="4" fill="blue"><title>module.masters.aws_lb_target_group_attachment.master[3] (0:00:00)</title></rect>
  <rect x="333.0" y="520" width="0.0" height="4" fill="blue"><title>module.masters.aws_lb_target_group_attachment.master[7] (0:00:00)</title></rect>
  <rect x="333.0" y="524" width="0.0" height="4" fill="blue"><title>module.masters.aws_lb_target_group_attachment.master[6] (0:00:00)</title></rect>
  <rect x="333.0" y="528" width="0.0" height="4" fill="blue"><title>module.masters.aws_lb_target_group_attachment.master[0] (0:00:00)</title></rect>
  <rect x="333.0" y="532" width="0.0" height="4" fill="blue"><title>module.masters.aws_lb_target_group_attachment.master[8] (0:00:00)</title></rect>
  <rect x="333.0" y="536" width="0.0" height="4" fill="blue"><title>module.masters.aws_lb_target_group_attachment.master[2] (0:00:00)</title></rect>
  <rect x="333.0" y="540" width="0.0" height="4" fill="blue"><title>module.masters.aws_lb_target_group_attachment.master[5] (0:00:00)</title></rect>
  <rect x="333.0" y="544" width="0.0" height="4" fill="blue"><title>module.masters.aws_lb_target_group_attachment.master[1] (0:00:00)</title></rect>
  <rect x="333.0" y="548" width="1.0" height="4" fill="blue"><title>module.masters.aws_lb_target_group_attachment.master[4] (0:00:01)</title></rect>
</svg>
